<svg width="24" height="24" viewBox="0 0 24 24" fill="none" xmlns="http://www.w3.org/2000/svg">
<path d="M12 23.999C18.6275 23.999 24 18.6265 24 11.999C24 5.373 18.6275 0 12 0C5.3725 0 0 5.3725 0 11.9995C0 18.6265 5.3725 23.999 12 23.999Z" fill="#E04F5F"/>
<path d="M12.0001 5.89058C15.3686 5.89058 18.1091 8.63058 18.1091 11.9996C18.1091 15.3676 15.3691 18.1081 12.0001 18.1081C8.63105 18.1081 5.89105 15.3681 5.89105 12.0001C5.89105 8.63208 8.63155 5.89008 12.0001 5.89008M12.0001 5.01758C8.14405 5.01758 5.01855 8.14308 5.01855 11.9991C5.01855 15.8551 8.14405 18.9811 12.0001 18.9811C15.8561 18.9811 18.9821 15.8551 18.9821 11.9996C18.9821 8.14358 15.8561 5.01808 12.0001 5.01808" fill="#FBEC9A"/>
<path d="M12.0001 18.1081C8.63161 18.1081 5.89111 15.3676 5.89111 11.9991C5.89111 8.63065 8.63111 5.88965 12.0001 5.88965C15.3691 5.88965 18.1091 8.63065 18.1091 11.9996C18.1091 15.3686 15.3686 18.1081 12.0001 18.1081Z" fill="#FACB1B"/>
<path d="M12.0001 5.89063C8.63161 5.89063 5.89111 8.63113 5.89111 11.9996C5.89111 13.7331 6.61811 15.2996 7.78211 16.4121L16.4126 7.78163C15.8436 7.18391 15.1591 6.70807 14.4006 6.383C13.642 6.05793 12.8254 5.89042 12.0001 5.89063Z" fill="#FBE158"/>
<path d="M5.89105 11.9991C5.89105 8.63058 8.63155 5.89008 12.0001 5.89008C13.7291 5.89008 15.2916 6.61358 16.4041 7.77208L17.0236 7.15258C16.3733 6.47657 15.5931 5.93897 14.7298 5.57208C13.8666 5.20519 12.938 5.01658 12.0001 5.01758C8.14405 5.01758 5.01855 8.14308 5.01855 11.9991C5.01855 13.9716 5.83805 15.7521 7.15355 17.0216L7.77305 16.4026C7.17806 15.8339 6.70453 15.1504 6.38106 14.3936C6.05759 13.6367 5.8909 12.8222 5.89105 11.9991Z" fill="#FCF6C2"/>
<path d="M13.0237 11.1043H13.5353C13.5353 10.3785 12.8305 10.0475 12.2562 9.97124V9.44141H11.7445V9.97124C11.1702 10.0475 10.4653 10.3785 10.4653 11.1043C10.4653 11.7966 11.1474 12.1566 11.7445 12.2377V13.5092C11.3741 13.4449 10.977 13.2472 10.977 12.8952H10.4653C10.4653 13.5575 11.0857 13.9489 11.7445 14.03V14.5581H12.2562V14.0285C12.8305 13.9523 13.5353 13.621 13.5353 12.8952C13.5353 12.1694 12.8305 11.8383 12.2562 11.7621V10.4903C12.5964 10.5515 13.0237 10.7311 13.0237 11.1043ZM10.977 11.1043C10.977 10.7311 11.4042 10.5515 11.7445 10.4903V11.7181C11.3938 11.6533 10.977 11.4617 10.977 11.1043ZM13.0237 12.8952C13.0237 13.2684 12.5964 13.448 12.2562 13.5092V12.2812C12.5964 12.3423 13.0237 12.5219 13.0237 12.8952Z" fill="#F24822"/>
</svg>
